<!-- Created by Adrien Coquet from the Noun Project -->
<svg xmlns="http://www.w3.org/2000/svg" viewBox="0 0 100 100">
  <circle fill="#202124" cx="50" cy="50" r="50" />
  <path fill="#bdc1c6" d="M50 81.3C54.8 81.3 58.7 77.4 58.7 72.6L41.3 72.6C41.4 77.4 45.2 81.3 50 81.3ZM73.8 60L68.3 51C67.3 49.5 66.9 47.8 66.9 46L66.9 42.4C66.9 34.8 62.1 27.8 54.9 25.6L54.9 23.6C54.9 20.9 52.7 18.7 50 18.7 47.3 18.7 45.1 20.9 45.1 23.6L45.1 25.6C38.2 27.7 33.2 34.1 33.2 41.7L33.2 46C33.2 47.8 32.7 49.5 31.8 51L26.2 60C25.2 61.7 25.1 63.8 26.1 65.6 27.1 67.4 28.9 68.4 30.9 68.4L69 68.4C71 68.4 72.8 67.4 73.8 65.6 74.9 63.8 74.9 61.7 73.8 60Z" />
</svg>
